#!OML:ASF X:\für Bonn\!DataBase\2005_08_10_Bjorn_Final\c3d\bjorn.ASF
:FULLY-SPECIFIED
:DEGREES
46
root -21.5775 19.4582 0.217327 -306.888 -89.1909 -47.1189
lowerback -13.0704 3.11006 -3.72245
upperback 4.00361 5.29582 -5.22363
thorax 11.9498 2.41962 -2.41523
lowerneck -0.7596 -5.33625 3.24358
upperneck -0.0794732 -7.18078 -5.97228
head -0.251815 -3.60695 -2.41073
rclavicle -4.41302e-014 2.06736e-014
rhumerus -1.97189 -4.42651 -72.8737
rradius 98.6443
rwrist -5.27278
rhand -28.1676 15.6424
rfingers 7.12502
rthumb -1.54777 -14.3317
lclavicle -4.41302e-014 2.06736e-014
lhumerus -28.1868 33.24 71.8681
lradius 14.4169
lwrist -51.4506
lhand -15.9761 -6.55938
lfingers 7.12502
lthumb 10.2232 23.1722
rfemur -13.382 -15.0763 17.4721
rtibia 24.8368
rfoot -8.6148 20.1543
rtoes 6.0713
lfemur -12.7457 14.9019 -17.0687
ltibia 24.2829
lfoot -8.77204 -17.1507
ltoes 3.46397
47
root -21.5743 19.458 0.216505 -298.877 -89.2581 -55.166
lowerback -13.1031 3.20268 -3.75625
upperback 3.96858 5.43292 -5.31723
thorax 11.9411 2.48498 -2.46656
lowerneck -0.761276 -5.41172 3.35277
upperneck 0.0151168 -7.27761 -5.98843
head -0.2316 -3.65574 -2.43608
rclavicle 7.196e-014 -3.18055e-014
rhumerus 0.252944 -4.09662 -71.7514
rradius 97.9703
rwrist -5.55462
rhand -27.9993 15.5891
rfingers 7.12502
rthumb -1.38519 -14.3862
lclavicle 7.196e-014 -3.18055e-014
lhumerus -28.1398 33.6552 71.5728
lradius 14.3059
lwrist -52.1298
lhand -16.073 -6.25608
lfingers 7.12502
lthumb 10.1297 23.4801
rfemur -13.3727 -14.9862 17.477
rtibia 24.8462
rfoot -8.5589 20.1825
rtoes 6.16976
lfemur -12.6884 15.0168 -17.0435
ltibia 24.2697
lfoot -8.7807 -17.1269
ltoes 3.41649
48
root -21.571 19.4579 0.216036 -290.842 -89.3025 -63.2387
lowerback -13.1273 3.29199 -3.78309
upperback 3.92673 5.56338 -5.41379
thorax 11.9208 2.54808 -2.52689
lowerneck -0.714228 -5.4893 3.45477
upperneck 0.0743272 -7.37738 -5.9784
head -0.229694 -3.7048 -2.44927
rclavicle 7.23576e-014 -6.36111e-014
rhumerus 2.39972 -3.84577 -70.6894
rradius 97.1257
rwrist -5.76941
rhand -27.6919 15.6274
rfingers 7.12502
rthumb -1.08836 -14.3496
lclavicle 7.23576e-014 -6.36111e-014
lhumerus -28.0858 33.9408 71.3207
lradius 14.2239
lwrist -52.6721
lhand -16.1241 -6.01234
lfingers 7.12502
lthumb 10.0805 23.7262
rfemur -13.3669 -14.9953 17.4832
rtibia 24.8558
rfoot -8.49344 20.2931
rtoes 6.24908
lfemur -12.6395 15.1141 -17.0217
ltibia 24.2601
lfoot -8.7705 -17.0986
ltoes 3.53575
49
root -21.5669 19.4572 0.214947 -281.654 -89.3316 -72.4645
lowerback -13.1507 3.37585 -3.82431
upperback 3.89477 5.68819 -5.49352
thorax 11.9078 2.60662 -2.56197
lowerneck -0.706417 -5.56281 3.52109
upperneck 0.164148 -7.47123 -5.97344
head -0.210046 -3.75182 -2.45974
rclavicle -2.14687e-014 3.97569e-014
rhumerus 4.55265 -3.6349 -69.6612
rradius 96.0633
rwrist -5.95033
rhand -27.2461 15.6996
rfingers 7.12502
rthumb -0.657765 -14.2791
lclavicle -2.14687e-014 3.97569e-014
lhumerus -28.0342 34.2222 71.1078
lradius 14.1717
lwrist -53.2026
lhand -16.1578 -5.81263
lfingers 7.12502
lthumb 10.0479 23.9275
rfemur -13.3575 -14.929 17.4923
rtibia 24.8664
rfoot -8.45042 20.3307
rtoes 6.3612
lfemur -12.5874 15.2155 -16.9966
ltibia 24.2467
lfoot -8.77073 -17.0938
ltoes 3.50538
50
root -21.5635 19.4569 0.214479 -272.071 -89.3284 -82.0842
lowerback -13.1691 3.46304 -3.83702
upperback 3.84942 5.81182 -5.58091
thorax 11.8806 2.66742 -2.62186
lowerneck -0.651039 -5.63072 3.62629
upperneck 0.230117 -7.55758 -5.96942
head -0.207296 -3.79405 -2.47539
rclavicle -1.94809e-014 2.22639e-014
rhumerus 6.69165 -3.4375 -68.6774
rradius 94.8482
rwrist -6.35339
rhand -26.659 15.7092
rfingers 7.12502
rthumb -0.0907134 -14.2706
lclavicle -1.94809e-014 2.22639e-014
lhumerus -27.9696 34.3523 70.925
lradius 14.1197
lwrist -53.5634
lhand -16.186 -5.6455
lfingers 7.12502
lthumb 10.0207 24.0959
rfemur -13.3525 -14.9368 17.5146
rtibia 24.8779
rfoot -8.36867 20.4398
rtoes 6.44092
lfemur -12.5378 15.314 -16.9621
ltibia 24.2355
lfoot -8.78349 -17.0535
ltoes 3.42488
51
root -21.5599 19.4575 0.213404 -263.177 -89.32 -91.0157
lowerback -13.1918 3.54834 -3.86041
upperback 3.81674 5.93606 -5.67026
thorax 11.8699 2.72737 -2.67765
lowerneck -0.621605 -5.70577 3.72408
upperneck 0.300376 -7.65394 -5.96196
head -0.198916 -3.84169 -2.48944
rclavicle 4.09496e-014 -4.13472e-014
rhumerus 8.83728 -3.20543 -67.7021
rradius 93.5089
rwrist -6.91462
rhand -26.0178 15.6712
rfingers 7.12502
rthumb 0.528559 -14.3079
lclavicle 4.09496e-014 -4.13472e-014
lhumerus -27.8634 34.4258 70.7892
lradius 14.0731
lwrist -53.8289
lhand -16.1808 -5.515
lfingers 7.12502
lthumb 10.0257 24.2262
rfemur -13.3447 -14.8827 17.5243
rtibia 24.8934
rfoot -8.34896 20.4833
rtoes 6.42679
lfemur -12.4856 15.4075 -16.9361
ltibia 24.2211
lfoot -8.78638 -17.0289
ltoes 3.36821
52
root -21.5561 19.4571 0.212804 -255.382 -89.2975 -98.8552
lowerback -13.2028 3.63039 -3.88946
upperback 3.78533 6.05493 -5.74611
thorax 11.8515 2.78405 -2.71716
lowerneck -0.579516 -5.77059 3.79532
upperneck 0.368433 -7.7362 -5.94929
head -0.191407 -3.8821 -2.49672
rclavicle 4.65156e-014 -6.83819e-014
rhumerus 10.936 -2.91778 -66.6459
rradius 92.1493
rwrist -7.70079
rhand -25.338 15.4592
rfingers 7.12502
rthumb 1.18517 -14.5172
lclavicle 4.65156e-014 -6.83819e-014
lhumerus -27.7485 34.4892 70.6765
lradius 14.0121
lwrist -54.1246
lhand -16.1687 -5.4258
lfingers 7.12502
lthumb 10.0374 24.3148
rfemur -13.3314 -14.8782 17.5313
rtibia 24.9051
rfoot -8.26508 20.5627
rtoes 6.57312
lfemur -12.4252 15.4915 -16.9086
ltibia 24.211
lfoot -8.7705 -17.0168
ltoes 3.46754
